<?xml version="1.0" standalone="no"?>
<!DOCTYPE svg PUBLIC "-//W3C//DTD SVG 20010904//EN"
 "http://www.w3.org/TR/2001/REC-SVG-20010904/DTD/svg10.dtd">
<svg version="1.0" xmlns="http://www.w3.org/2000/svg"
 width="603.000000pt" height="603.000000pt" viewBox="0 0 603.000000 603.000000"
 preserveAspectRatio="xMidYMid meet">
<metadata>
Created by potrace 1.11, written by Peter Selinger 2001-2013
</metadata>
<g transform="translate(0.000000,603.000000) scale(0.100000,-0.100000)"
fill="#000000" stroke="none">
<path d="M2287 5770 c-43 -13 -95 -57 -116 -98 -10 -20 -24 -68 -30 -107 -7
-38 -15 -80 -18 -92 l-5 -23 1033 0 c568 0 1030 2 1027 5 -7 8 -1811 325
-1839 324 -13 0 -37 -5 -52 -9z"/>
<path d="M4593 5355 c60 -45 120 -135 144 -211 16 -55 18 -147 23 -1447 l5
-1387 243 1377 c133 758 242 1397 242 1421 0 79 -45 144 -120 176 -30 12 -534
106 -571 106 -6 0 9 -16 34 -35z"/>
<path d="M1480 5188 c-26 -14 -57 -41 -75 -66 -28 -41 -30 -51 -33 -148 -3
-80 -1 -104 9 -104 16 0 1890 329 1904 335 6 2 -388 4 -875 4 l-886 1 -44 -22z"/>
<path d="M3890 5192 c92 -63 152 -148 179 -252 10 -41 115 -622 232 -1290
l214 -1215 3 1300 c2 901 0 1311 -8 1337 -14 48 -53 94 -101 118 -35 18 -59
20 -291 19 -241 0 -252 -1 -228 -17z"/>
<path d="M2245 4781 c-737 -131 -1353 -241 -1370 -245 -44 -11 -111 -83 -125
-136 -11 -41 13 -184 339 -2039 193 -1098 359 -2013 367 -2033 30 -67 105
-118 176 -118 18 0 647 108 1398 240 1063 188 1375 246 1410 263 60 31 101 96
101 163 1 49 -683 3950 -702 4012 -15 44 -66 102 -106 118 -18 8 -58 14 -90
13 -32 0 -661 -108 -1398 -238z m489 -765 c98 -33 152 -65 221 -128 100 -91
161 -213 185 -373 28 -186 -39 -397 -197 -616 -224 -311 -273 -397 -293 -512
-16 -91 6 -201 63 -311 23 -44 42 -85 42 -91 0 -9 -294 -66 -307 -58 -12 7
-48 94 -75 183 -21 68 -26 107 -27 195 0 103 2 116 35 202 43 110 100 207 214
363 207 284 264 440 221 610 -19 74 -69 156 -118 194 -75 56 -145 79 -258 84
-128 5 -227 -16 -345 -74 -113 -57 -254 -182 -304 -272 -5 -9 -11 -15 -14 -12
-6 7 -57 301 -57 328 0 28 148 139 270 201 185 94 304 122 515 117 132 -2 159
-6 229 -30z m67 -2451 c172 -61 200 -291 48 -392 -48 -32 -136 -42 -194 -23
-142 47 -192 235 -93 350 62 72 151 96 239 65z"/>
</g>
</svg>
