<?xml version="1.0" standalone="no"?>
<!DOCTYPE svg PUBLIC "-//W3C//DTD SVG 20010904//EN"
 "http://www.w3.org/TR/2001/REC-SVG-20010904/DTD/svg10.dtd">
<svg version="1.0" xmlns="http://www.w3.org/2000/svg"
 width="780.000000pt" height="780.000000pt" viewBox="0 0 780.000000 780.000000"
 preserveAspectRatio="xMidYMid meet">
<metadata>
Created by potrace 1.11, written by Peter Selinger 2001-2013
</metadata>
<g transform="translate(0.000000,780.000000) scale(0.100000,-0.100000)"
fill="#000000" stroke="none">
<path d="M3685 7560 c-98 -38 -164 -121 -180 -227 l-7 -43 989 1 c543 1 981 3
973 5 -97 25 -1620 284 -1665 283 -34 0 -82 -8 -110 -19z"/>
<path d="M5965 7188 c98 -70 183 -194 204 -301 8 -37 10 -901 9 -2927 l-3
-2875 -27 -65 c-15 -35 -26 -66 -24 -68 2 -2 46 -6 98 -9 80 -4 101 -2 152 17
72 27 136 89 159 151 21 56 987 5539 987 5600 0 57 -39 137 -86 179 -83 72
-93 75 -809 201 -368 65 -674 119 -680 119 -5 -1 4 -10 20 -22z"/>
<path d="M2064 7029 c-111 -42 -188 -144 -182 -243 l3 -53 865 153 c476 84
874 155 885 157 11 2 -326 5 -750 5 -741 1 -772 0 -821 -19z"/>
<path d="M4235 7017 c108 -59 195 -163 229 -277 24 -78 996 -5603 996 -5659 0
-26 -6 -70 -14 -99 l-13 -52 133 0 c109 0 143 4 187 20 69 26 132 80 162 141
l25 48 0 2851 0 2851 -25 48 c-30 61 -93 115 -162 141 -52 19 -77 20 -816 20
l-762 -1 60 -32z"/>
<path d="M2175 6546 c-1840 -326 -1762 -310 -1849 -386 -47 -42 -86 -122 -86
-179 0 -61 966 -5544 987 -5600 36 -98 152 -171 271 -171 31 0 831 137 1777
304 1851 326 1772 310 1859 386 47 42 86 122 86 179 0 61 -966 5544 -987 5600
-37 102 -153 172 -281 170 -40 0 -757 -123 -1777 -303z m711 -1090 c198 -43
345 -119 468 -242 164 -163 250 -388 250 -649 1 -255 -91 -498 -349 -935 -198
-334 -286 -524 -342 -740 -25 -95 -36 -275 -23 -390 l5 -45 -65 -12 c-36 -6
-66 -10 -67 -9 -10 10 -33 264 -33 366 0 248 38 447 152 800 132 411 164 576
155 800 -23 517 -264 829 -640 830 -330 0 -615 -210 -594 -440 8 -90 37 -143
137 -244 102 -104 120 -142 120 -245 -1 -147 -85 -235 -225 -236 -59 0 -78 5
-124 30 -144 80 -221 253 -221 499 0 166 43 298 145 441 160 226 461 386 815
435 94 13 352 5 436 -14z m222 -3387 c145 -72 212 -241 158 -399 -26 -76 -111
-160 -186 -185 -159 -53 -324 15 -397 163 -68 138 -15 324 116 404 55 35 102
47 177 48 60 0 81 -5 132 -31z"/>
</g>
</svg>
